<mxfile>
    <diagram id="9Xjvty757VEQDmrLDHqj" name="Page-1">
        <mxGraphModel dx="728" dy="680" grid="1" gridSize="10" guides="1" tooltips="1" connect="1" arrows="1" fold="1" page="1" pageScale="1" pageWidth="827" pageHeight="1169" math="0" shadow="0">
            <root>
                <mxCell id="0"/>
                <mxCell id="1" parent="0"/>
                <mxCell id="2" value="Utente" style="shape=umlLifeline;perimeter=lifelinePerimeter;container=1;collapsible=0;recursiveResize=0;rounded=0;shadow=0;strokeWidth=1;" vertex="1" parent="1">
                    <mxGeometry x="20" y="20" width="100" height="300" as="geometry"/>
                </mxCell>
                <mxCell id="3" value="" style="points=[];perimeter=orthogonalPerimeter;rounded=0;shadow=0;strokeWidth=1;" vertex="1" parent="2">
                    <mxGeometry x="45" y="70" width="10" height="190" as="geometry"/>
                </mxCell>
                <mxCell id="6" value="Sistema" style="shape=umlLifeline;perimeter=lifelinePerimeter;container=1;collapsible=0;recursiveResize=0;rounded=0;shadow=0;strokeWidth=1;" vertex="1" parent="1">
                    <mxGeometry x="360" y="20" width="100" height="300" as="geometry"/>
                </mxCell>
                <mxCell id="7" value="" style="points=[];perimeter=orthogonalPerimeter;rounded=0;shadow=0;strokeWidth=1;" vertex="1" parent="6">
                    <mxGeometry x="45" y="80" width="10" height="160" as="geometry"/>
                </mxCell>
                <mxCell id="8" value="VisualizzaProfilo(Nome, Permessi, ...)" style="verticalAlign=bottom;endArrow=open;dashed=1;endSize=8;shadow=0;strokeWidth=1;" edge="1" parent="1" source="6">
                    <mxGeometry relative="1" as="geometry">
                        <mxPoint x="70" y="140" as="targetPoint"/>
                        <mxPoint x="245" y="140" as="sourcePoint"/>
                        <Array as="points">
                            <mxPoint x="160" y="140"/>
                        </Array>
                    </mxGeometry>
                </mxCell>
                <mxCell id="9" value="SelezionaProfilo()" style="verticalAlign=bottom;endArrow=block;entryX=0;entryY=0;shadow=0;strokeWidth=1;" edge="1" parent="1" source="3" target="7">
                    <mxGeometry relative="1" as="geometry">
                        <mxPoint x="175" y="100" as="sourcePoint"/>
                    </mxGeometry>
                </mxCell>
                <mxCell id="12" value="ClickBottonePermessi()" style="verticalAlign=bottom;endArrow=block;shadow=0;strokeWidth=1;" edge="1" parent="1" target="6">
                    <mxGeometry x="-0.0588" relative="1" as="geometry">
                        <mxPoint x="80" y="180.0000000000001" as="sourcePoint"/>
                        <mxPoint x="250" y="180.0000000000001" as="targetPoint"/>
                        <mxPoint as="offset"/>
                    </mxGeometry>
                </mxCell>
                <mxCell id="13" value="ModificaPermessi()" style="verticalAlign=bottom;endArrow=open;dashed=1;endSize=8;shadow=0;strokeWidth=1;" edge="1" parent="1" source="6">
                    <mxGeometry relative="1" as="geometry">
                        <mxPoint x="70" y="220" as="targetPoint"/>
                        <mxPoint x="245" y="220" as="sourcePoint"/>
                        <Array as="points">
                            <mxPoint x="160" y="220"/>
                        </Array>
                    </mxGeometry>
                </mxCell>
            </root>
        </mxGraphModel>
    </diagram>
</mxfile>